#!OML:ASF H:\ColoradoDance\Project 1\Capture day 1\Session 8\male.ASF
:FULLY-SPECIFIED
:DEGREES
65
upperback 3.543240 3.560960 9.286530
rfoot 206.598999 153.102997
lradius 12.802300
lthumb 2.559490 -330.127991
rradius 22.946501
lwrist -21.125401
rhand -17.862801 22.146000
rhumerus -51.942501 -46.558399 -9.554120
lowerneck -16.540300 -3.651610 -2.526420
lhand -23.915001 -360.092010
ltibia 26.798700
head 8.826250 -2.282450 2.322080
rwrist -115.813004
lfingers 7.125020
rtoes 27.508699
lowerback 6.417040 2.452000 11.118200
rfingers 7.125020
lclavicle -0.000000 -0.000000
upperneck 18.392799 -6.174990 7.907480
rfemur 10.007100 8.614870 -9.328010
thorax 0.227041 1.666820 3.303730
rclavicle -0.000000 -0.000000
rtibia 41.125000
lfoot -16.755600 22.161100
lhumerus 29.851801 22.599400 77.062103
rthumb 8.402790 -7.666830
root -25.041300 20.342899 10.790300 65.753403 -36.761799 317.648987
ltoes 7.429860
lfemur -42.887600 2.786670 13.863100
66
upperback 2.431820 9.599740 3.769930
rfoot 210.410995 162.328003
lradius 11.855600
lthumb 5.052760 -323.582001
rradius 21.447599
lwrist -32.053699
rhand -26.761801 16.606400
rhumerus 7.250830 -19.665100 -83.823303
lowerneck -23.486500 -5.656320 -0.047469
lhand -21.333099 -353.502014
ltibia 14.082800
head 10.239800 -3.679430 3.364570
rwrist -124.132004
lfingers 7.125020
rtoes 26.826599
lowerback 4.262120 7.140910 8.342620
rfingers 7.125020
lclavicle 0.000000 -0.000000
upperneck 16.772301 -11.377800 14.668100
rfemur 9.838740 -11.440300 -1.753280
thorax 0.878398 4.763970 -0.955659
rclavicle 0.000000 -0.000000
rtibia 59.924000
lfoot -37.964901 43.722599
lhumerus 13.251200 55.220501 75.289803
rthumb -0.190001 -13.373300
root -24.838100 20.503500 10.466400 99.302597 -49.335899 296.536011
ltoes 16.325300
lfemur -42.286499 -18.047600 34.141899
67
upperback 1.059050 8.088520 0.562800
rfoot 205.080002 156.427002
lradius 13.213800
lthumb 4.609640 -321.213013
rradius 51.443501
lwrist -10.606900
rhand -34.808601 3.286390
rhumerus 62.006302 29.845400 -54.064098
lowerneck -17.418301 0.812408 9.855610
lhand -21.792000 -351.143005
ltibia 26.568100
head 9.225260 -0.776077 2.603170
rwrist -167.625000
lfingers 7.125020
rtoes 29.267200
lowerback 10.141400 5.683360 5.820320
rfingers 7.125020
lclavicle 0.000000 0.000000
upperneck 18.744699 -5.731010 14.542500
rfemur 15.897700 -17.460699 -0.678792
thorax -3.814700 3.859840 -3.662740
rclavicle 0.000000 0.000000
rtibia 72.864197
lfoot -24.827299 39.512501
lhumerus -30.445801 51.354198 39.407799
rthumb -7.960070 -26.543699
root -24.595900 20.381201 10.426200 136.136993 -47.642399 259.105011
ltoes 16.037100
lfemur -36.636902 3.828960 23.594700
68
upperback -1.667270 8.958250 -5.715730
rfoot 211.936005 166.356003
lradius 11.552500
lthumb 0.604846 -315.947998
rradius 67.279900
lwrist -22.794100
rhand -37.854500 -10.821900
rhumerus 70.422501 -26.036800 -41.094101
lowerneck -10.056200 -1.451390 11.645500
lhand -25.938801 -345.927002
ltibia 23.596500
head 9.550590 -3.029550 2.648490
rwrist -183.955002
lfingers 7.125020
rtoes 31.296400
lowerback 1.569240 6.644920 7.833220
rfingers 7.125020
lclavicle -0.000000 0.000000
upperneck 22.560499 -10.436600 16.957199
rfemur 11.715400 -9.176420 4.007220
thorax -0.491194 4.423060 -10.453400
rclavicle -0.000000 0.000000
rtibia 71.194603
lfoot -7.963190 27.810200
lhumerus -56.237598 76.415604 3.241770
rthumb -10.898900 -40.519100
root -24.846500 21.152800 10.387300 168.751007 -38.361401 228.246002
ltoes -6.094400
lfemur -29.589001 -16.034100 24.535900
69
upperback -2.812680 6.341990 -3.681720
rfoot 215.360992 158.949005
lradius 14.473900
lthumb 3.771270 -317.792999
rradius 69.289703
lwrist -8.057800
rhand -30.124399 -11.200600
rhumerus 74.889801 -51.925499 -48.780399
lowerneck -8.323120 -2.617020 14.367900
lhand -22.660200 -347.739990
ltibia 31.059601
head 8.372500 -4.073660 0.763132
rwrist -194.403000
lfingers 7.125020
rtoes 48.733601
lowerback 2.081080 4.605470 7.819480
rfingers 7.125020
lclavicle 0.000000 0.000000
upperneck 21.215300 -11.424500 12.933700
rfemur 8.814770 -17.956499 8.402040
thorax -2.838730 2.937550 -8.475200
rclavicle 0.000000 0.000000
rtibia 68.434402
lfoot -33.612400 40.203201
lhumerus 53.732601 73.570396 72.166298
rthumb -3.437590 -41.152699
root -24.739901 20.219500 10.505900 184.296005 -19.361300 215.138000
ltoes 23.315500
lfemur -28.561199 -2.200740 11.209800
70
upperback -2.668010 1.286590 4.111090
rfoot 213.498001 158.815994
lradius 27.174400
lthumb 2.089560 -290.235992
rradius 68.189003
lwrist 19.193600
rhand -20.073601 -3.247070
rhumerus 81.648804 -47.717999 -52.162701
lowerneck -3.990010 -1.774980 4.456610
lhand -24.401501 -320.204987
ltibia 24.945299
head 8.883290 1.156180 1.995160
rwrist -200.330994
lfingers 7.125020
rtoes 41.714699
lowerback -0.507494 0.669471 3.424520
rfingers 7.125020
lclavicle 0.000000 -0.000000
upperneck 26.124399 -2.373860 8.195720
rfemur 14.791000 -13.994100 -1.657890
thorax -2.488400 0.738353 2.285820
rclavicle 0.000000 -0.000000
rtibia 73.721397
lfoot -70.530098 37.293701
lhumerus 35.897701 70.119202 22.445601
rthumb 6.268720 -33.134300
root -24.848101 20.289000 10.851300 193.281006 4.802700 209.848999
ltoes 39.408001
lfemur -19.608601 -17.730700 8.323790
71
upperback -3.834490 -1.746490 6.566930
rfoot 213.884995 159.158005
lradius 41.769199
lthumb 14.837300 -296.795990
rradius 70.653603
lwrist 36.291401
rhand -10.645800 11.462900
rhumerus 84.161499 -57.577400 -56.757500
lowerneck -3.724490 -0.049745 2.839400
lhand -11.190200 -326.244995
ltibia 25.395901
head 9.018130 1.782690 1.506740
rwrist -215.264008
lfingers 7.125020
rtoes 44.170601
lowerback -0.691599 -1.876950 4.263540
rfingers 7.125020
lclavicle 0.000000 0.000000
upperneck 26.901501 0.352921 5.361630
rfemur 15.274000 -12.236500 -0.778571
thorax -3.523000 -0.663235 4.455990
rclavicle 0.000000 0.000000
rtibia 75.881203
lfoot -56.535301 37.983101
lhumerus 54.079201 59.056900 32.081402
rthumb 15.361700 -17.946400
root -25.243200 20.141399 10.751000 196.766998 20.469801 204.285004
ltoes 32.238800
lfemur -18.180700 -14.151100 -1.627210
72
upperback -3.651520 -2.835350 6.843280
rfoot 200.929993 151.255997
lradius 48.076900
lthumb 14.445700 -297.890991
rradius 67.367500
lwrist 36.475201
rhand -14.627900 5.616720
rhumerus 70.971802 -70.111099 -50.220299
lowerneck -3.814660 2.898970 5.293600
lhand -11.596600 -327.368988
ltibia 33.966999
head 8.929360 3.397660 0.175393
rwrist -216.100006
lfingers 7.125020
rtoes 42.774799
lowerback -1.121300 -2.640430 5.924080
rfingers 7.125020
lclavicle -0.000000 -0.000000
upperneck 26.307800 4.541750 1.738780
rfemur 10.668600 -19.051600 1.639150
thorax -3.120100 -1.267560 3.821760
rclavicle -0.000000 -0.000000
rtibia 70.825401
lfoot -33.864300 37.579800
lhumerus 61.434299 50.034599 34.983002
rthumb 11.523600 -24.046499
root -25.738701 19.665001 10.138700 195.621002 39.660000 198.408005
ltoes 25.601000
lfemur -20.582701 9.380410 -15.788000
73
upperback -3.496880 -3.257420 7.042850
rfoot 186.746002 177.447998
lradius 51.568901
lthumb 12.763600 -300.847992
rradius 60.398102
lwrist 28.959900
rhand -14.510200 -11.459500
rhumerus 35.309101 -80.670502 -24.049299
lowerneck -3.550520 5.689690 7.896070
lhand -13.341900 -330.437988
ltibia 38.745201
head 9.148680 5.089370 -1.010900
rwrist -222.255997
lfingers 7.125020
rtoes -4.645790
lowerback -1.539980 -2.900790 7.625110
rfingers 7.125020
lclavicle -0.000000 -0.000000
upperneck 26.002300 8.612960 -1.544690
rfemur 3.533580 -20.987101 10.096100
thorax -2.812650 -1.529140 3.076130
rclavicle -0.000000 -0.000000
rtibia 60.419300
lfoot -31.853901 37.036999
lhumerus 63.840500 37.821602 39.600601
rthumb 11.637100 -41.116402
root -26.600700 19.091200 9.469720 192.182007 55.879902 189.298996
ltoes 21.179800
lfemur -27.792500 24.641600 -31.584900
74
upperback -1.890900 -2.662790 8.255440
rfoot 149.875000 179.580994
lradius 53.931900
lthumb 1.386860 -305.019012
rradius 52.588699
lwrist 12.830000
rhand -15.840500 -27.428600
rhumerus -46.718300 -76.816002 44.007801
lowerneck -4.498040 8.274390 9.442820
lhand -25.129101 -334.994995
ltibia 46.928501
head 8.686790 6.331280 -2.434810
rwrist -213.873001
lfingers 7.125020
rtoes -25.988899
lowerback 0.503393 -2.611560 9.744580
rfingers 7.125020
lclavicle -0.000000 0.000000
upperneck 22.403601 12.358100 -6.169610
rfemur -3.596220 -13.755600 16.377501
thorax -2.349700 -1.211710 3.223480
rclavicle -0.000000 0.000000
rtibia 50.302299
lfoot -29.372700 36.762699
lhumerus 63.301498 16.742800 49.472401
rthumb 10.354000 -57.153702
root -28.198601 18.492701 9.081030 191.438995 67.580498 183.858002
ltoes 15.469400
lfemur -41.246700 24.236900 -41.664001
75
upperback 0.164750 -2.899480 7.389040
rfoot 142.177002 170.427002
lradius 41.811401
lthumb -17.608500 -287.632996
rradius 41.982899
lwrist -18.705500
rhand -34.623299 -25.167700
rhumerus -49.827202 -54.013000 12.624400
lowerneck -1.008710 12.829100 15.674400
lhand -44.818001 -316.855011
ltibia 66.876900
head 7.176130 9.241950 -4.838260
rwrist -304.339996
lfingers 7.125020
rtoes -16.789700
lowerback 3.827370 -3.016670 12.605400
rfingers 7.125020
lclavicle -0.000000 -0.000000
upperneck 14.377100 18.559900 -12.222200
rfemur -15.090500 -5.031840 14.770400
thorax -2.262250 -1.362810 0.876040
rclavicle -0.000000 -0.000000
rtibia 48.595299
lfoot -16.174801 22.548401
lhumerus 50.540600 -15.261000 56.172401
rthumb -7.781220 -55.004501
root -29.474100 18.105301 8.351390 205.104004 80.625397 191.608002
ltoes 5.720930
lfemur -62.926800 24.508900 -33.265400
76
upperback 1.737170 -4.951500 6.680550
rfoot 149.306000 167.037003
lradius 21.408800
lthumb 7.836270 -281.781006
rradius 21.073400
lwrist -39.489799
rhand -54.219200 4.113960
rhumerus -81.369797 -41.415199 0.464378
lowerneck 0.395727 16.917700 20.109301
lhand -18.449699 -311.615997
ltibia 58.242802
head 6.849160 11.831700 -5.367920
rwrist -370.087006
lfingers 7.125020
rtoes -33.116402
lowerback 2.920320 -4.169930 11.111700
rfingers 7.125020
lclavicle 0.000000 -0.000000
upperneck 9.239240 23.754601 -14.193700
rfemur -13.613800 3.457810 7.783240
thorax -0.179168 -2.300350 0.936630
rclavicle 0.000000 -0.000000
rtibia 40.817902
lfoot -15.986400 28.762501
lhumerus 21.583700 -39.886101 77.185097
rthumb -26.633101 -24.032700
root -28.638100 17.824600 6.283580 256.816010 85.829399 239.947998
ltoes 13.804800
lfemur -65.543404 35.445900 -21.798201
